<?xml version="1.0" encoding="UTF-8"?>
<svg id="Layer_5" data-name="Layer 5" xmlns="http://www.w3.org/2000/svg" viewBox="0 0 1200 1200">
  <defs>
    <style>
      .cls-1 {
        fill: #2E7BFA;
      }

      .cls-2 {
        fill: #fff;
      }
    </style>
  </defs>
  <rect class="cls-1" x="73.1" y="73.1" width="1053.8" height="1053.8" rx="125.59" ry="125.59"/>
  <g id="Camada_1-2" data-name="Camada 1-2">
    <g>
      <path class="cls-2" d="M626.34,885.78l50.91-80.2c1.96-3.1,5.36-4.99,9.04-5.03l103.13-1.14c8.17-.1,13.32-8.86,9.39-16.05l-60.53-110.54c-1.91-3.48-5.54-5.64-9.51-5.64h-118.54c-4.28,0-8.17-2.53-9.92-6.46l-33.26-75.23c-3.16-7.17,2.08-15.23,9.92-15.23h221.35c3.87,0,7.45,2.06,9.39,5.42l179.25,310.46c4.17,7.23-1.04,16.27-9.39,16.27h-342.07c-8.55,0-13.73-9.43-9.16-16.64v.02Z"/>
      <path class="cls-2" d="M660.47,536.59l-47.92-86.92c-4.09-7.43-14.76-7.49-18.92-.1l-60.73,107.45c-1.73,3.05-1.87,6.72-.39,9.9l50.04,107.79c1.49,3.22,1.32,6.96-.47,10.02l-38.31,65.86c-2.28,3.91-6.74,5.99-11.2,5.23h0c-3.1-.53-5.84-2.4-7.47-5.11l-115.29-191.82c-2.02-3.36-2.06-7.56-.12-10.98l180.94-315.62c4.17-7.25,14.62-7.27,18.78-.02l169.54,293.68c4.17,7.23-1.04,16.27-9.39,16.27h-99.61c-3.95,0-7.58-2.14-9.49-5.6l.02-.02Z"/>
      <path class="cls-2" d="M451.32,693.7l-52.83,96.47c-3.95,7.23,1.28,16.05,9.51,16.05h128.71c3.77,0,7.27-1.96,9.23-5.19l62.48-101.99c1.96-3.22,5.46-5.19,9.23-5.19h79.83c8.49,0,13.67,9.31,9.23,16.52l-115.25,186.87c-1.96,3.2-5.46,5.15-9.23,5.15H222.44c-8.35,0-13.56-9.04-9.39-16.27l167.42-289.96c4.13-7.17,14.44-7.25,18.69-.14l51.95,86.88c1.96,3.3,2.04,7.39,.2,10.77l.02,.02Z"/>
    </g>
  </g>
</svg>